<svg id="visual" viewBox="0 0 1920 1080" width="1920" height="1080" xmlns="http://www.w3.org/2000/svg" xmlns:xlink="http://www.w3.org/1999/xlink" version="1.1"><g><g transform="translate(1455 676)"><path d="M138.8 -159C182.5 -128.7 222.4 -87.5 233.3 -39.2C244.1 9.2 226 64.6 194.5 105.8C163 147.1 118.1 174.2 70.9 188.7C23.7 203.3 -25.8 205.2 -73.2 192C-120.6 178.7 -165.9 150.3 -189.2 109.5C-212.4 68.7 -213.6 15.4 -203.3 -34.5C-192.9 -84.5 -171 -131 -135.2 -162.7C-99.3 -194.4 -49.7 -211.1 -1.1 -209.8C47.5 -208.6 95.1 -189.3 138.8 -159Z" fill="#0066FF"></path></g><g transform="translate(118 615)"><path d="M122.6 -147.2C155 -118.8 174.9 -76.6 185.4 -30.7C196 15.3 197.2 64.9 177.4 105.4C157.5 145.8 116.7 177 72.9 187.3C29.1 197.7 -17.6 187.1 -61.1 170.2C-104.7 153.4 -145.1 130.3 -172.2 94.2C-199.3 58.1 -213.1 9 -207.5 -39C-201.9 -87 -176.9 -134 -139.1 -161.4C-101.3 -188.9 -50.6 -196.7 -2.8 -193.4C45.1 -190.1 90.1 -175.6 122.6 -147.2Z" fill="#0066FF"></path></g><g transform="translate(913 932)"><path d="M127.8 -150.1C165.2 -120.9 195 -80.2 199.5 -37.7C204.1 4.9 183.4 49.4 157.9 88.9C132.4 128.5 102.2 163 63.9 177.8C25.7 192.7 -20.5 187.9 -65.1 173.8C-109.7 159.7 -152.8 136.4 -174.5 100.1C-196.3 63.8 -196.7 14.5 -187.8 -32.7C-179 -79.9 -160.9 -125 -128 -155.1C-95.2 -185.1 -47.6 -200.2 -1.2 -198.7C45.2 -197.3 90.3 -179.4 127.8 -150.1Z" fill="#0066FF"></path></g><g transform="translate(1009 309)"><path d="M115.5 -129.2C153.8 -105.6 191.8 -73 198.9 -34.7C206.1 3.6 182.5 47.7 156.8 88.8C131 130 103.1 168.2 63.7 188.1C24.4 208.1 -26.3 209.7 -68.3 192.4C-110.3 175 -143.6 138.6 -166.8 97C-189.9 55.4 -203 8.6 -194 -32.8C-185 -74.2 -154 -110.4 -118 -134.4C-81.9 -158.4 -41 -170.3 -1.2 -168.9C38.6 -167.5 77.3 -152.8 115.5 -129.2Z" fill="#0066FF"></path></g><g transform="translate(1888 153)"><path d="M151.3 -171.2C196.3 -142.6 233.1 -95.1 245 -41.2C256.8 12.7 243.7 72.9 212.9 119.6C182 166.3 133.4 199.5 79.9 218.7C26.4 237.9 -32 243.1 -82.2 225.1C-132.4 207.2 -174.4 166.1 -195.4 118.3C-216.4 70.6 -216.4 16.2 -202.6 -31.1C-188.8 -78.5 -161.2 -118.9 -125.1 -149C-89.1 -179.2 -44.5 -199.2 4.3 -204.3C53.2 -209.5 106.3 -199.8 151.3 -171.2Z" fill="#0066FF"></path></g></g></svg>