<svg id="visual" viewBox="0 0 1920 1080" width="1920" height="1080" xmlns="http://www.w3.org/2000/svg" xmlns:xlink="http://www.w3.org/1999/xlink" version="1.1"><path d="M698 0L695.5 25.7C693 51.3 688 102.7 684.7 154.2C681.3 205.7 679.7 257.3 644.8 308.8C610 360.3 542 411.7 534.5 463C527 514.3 580 565.7 566.3 617C552.7 668.3 472.3 719.7 415.3 771.2C358.3 822.7 324.7 874.3 362.5 925.8C400.3 977.3 509.7 1028.7 564.3 1054.3L619 1080L0 1080L0 1054.3C0 1028.7 0 977.3 0 925.8C0 874.3 0 822.7 0 771.2C0 719.7 0 668.3 0 617C0 565.7 0 514.3 0 463C0 411.7 0 360.3 0 308.8C0 257.3 0 205.7 0 154.2C0 102.7 0 51.3 0 25.7L0 0Z" fill="#00a2ff" stroke-linecap="round" stroke-linejoin="miter"></path></svg>