<svg id="visual" viewBox="0 0 2000 1000" width="2000" height="1000" xmlns="http://www.w3.org/2000/svg" xmlns:xlink="http://www.w3.org/1999/xlink" version="1.1"><g><g transform="translate(194 315)"><path d="M159.7 -159C204.6 -114.8 237 -57.4 237.1 0.1C237.2 57.5 204.8 115 159.9 159.6C115 204.2 57.5 235.8 -1.4 237.2C-60.2 238.5 -120.4 209.6 -161.3 165C-202.2 120.4 -223.8 60.2 -222.4 1.4C-221.1 -57.5 -196.8 -115 -155.9 -159.3C-115 -203.5 -57.5 -234.5 -0.1 -234.4C57.4 -234.4 114.8 -203.3 159.7 -159Z" fill="#1e90ff"></path></g><g transform="translate(981 939)"><path d="M153.8 -158.7C191.9 -115.7 210.4 -57.8 208.9 -1.5C207.4 54.9 186.1 109.9 148 148.1C109.9 186.3 54.9 207.8 -0.6 208.4C-56.1 209 -112.2 188.6 -154.8 150.4C-197.3 112.2 -226.4 56.1 -227.7 -1.3C-229 -58.7 -202.6 -117.5 -160.1 -160.5C-117.5 -203.6 -58.7 -230.9 -0.5 -230.5C57.8 -230 115.7 -201.8 153.8 -158.7Z" fill="#1e90ff"></path></g></g></svg>