<svg id="visual" viewBox="0 0 407 1080" width="407" height="1080" xmlns="http://www.w3.org/2000/svg" xmlns:xlink="http://www.w3.org/1999/xlink" version="1.1"><rect x="0" y="0" width="407" height="1080" fill="#4FACF7"></rect><path d="M354 1080L356.5 1054.3C359 1028.7 364 977.3 364.2 925.8C364.3 874.3 359.7 822.7 356 771.2C352.3 719.7 349.7 668.3 344.5 617C339.3 565.7 331.7 514.3 333.2 463C334.7 411.7 345.3 360.3 351.7 308.8C358 257.3 360 205.7 358.5 154.2C357 102.7 352 51.3 349.5 25.7L347 0L407 0L407 25.7C407 51.3 407 102.7 407 154.2C407 205.7 407 257.3 407 308.8C407 360.3 407 411.7 407 463C407 514.3 407 565.7 407 617C407 668.3 407 719.7 407 771.2C407 822.7 407 874.3 407 925.8C407 977.3 407 1028.7 407 1054.3L407 1080Z" fill="#ffffff" stroke-linecap="round" stroke-linejoin="miter"></path></svg>