<svg id="visual" viewBox="0 0 1920 1080" width="1920" height="1080" xmlns="http://www.w3.org/2000/svg" xmlns:xlink="http://www.w3.org/1999/xlink" version="1.1"><rect x="0" y="0" width="1920" height="1080" fill="#ffffff"></rect><defs><linearGradient id="grad1_0" x1="43.8%" y1="0%" x2="100%" y2="100%"><stop offset="14.444444444444446%" stop-color="#ffffff" stop-opacity="1"></stop><stop offset="85.55555555555554%" stop-color="#ffffff" stop-opacity="1"></stop></linearGradient></defs><defs><linearGradient id="grad2_0" x1="0%" y1="0%" x2="56.3%" y2="100%"><stop offset="14.444444444444446%" stop-color="#ffffff" stop-opacity="1"></stop><stop offset="85.55555555555554%" stop-color="#ffffff" stop-opacity="1"></stop></linearGradient></defs><g transform="translate(1920, 0)"><path d="M0 432C-52.4 415.6 -104.8 399.1 -157.7 380.6C-210.6 362.2 -264 341.7 -305.5 305.5C-346.9 269.3 -376.3 217.3 -395.4 163.8C-414.5 110.3 -423.3 55.1 -432 0L0 0Z" fill="#4FACF7"></path></g><g transform="translate(0, 1080)"><path d="M0 -432C57 -426.3 114.1 -420.7 165.3 -399.1C216.6 -377.6 262.1 -340.2 297.7 -297.7C333.3 -255.2 359 -207.7 379.7 -157.3C400.4 -106.8 416.2 -53.4 432 0L0 0Z" fill="#4FACF7"></path></g></svg>