<svg id="visual" viewBox="0 0 2000 1000" width="2000" height="1000" xmlns="http://www.w3.org/2000/svg" xmlns:xlink="http://www.w3.org/1999/xlink" version="1.1"><path d="M1014 1000L1042.7 972.2C1071.3 944.3 1128.7 888.7 1171 833.2C1213.3 777.7 1240.7 722.3 1260.3 666.8C1280 611.3 1292 555.7 1293.3 500C1294.7 444.3 1285.3 388.7 1258 333.2C1230.7 277.7 1185.3 222.3 1164 166.8C1142.7 111.3 1145.3 55.7 1146.7 27.8L1148 0L2000 0L2000 27.8C2000 55.7 2000 111.3 2000 166.8C2000 222.3 2000 277.7 2000 333.2C2000 388.7 2000 444.3 2000 500C2000 555.7 2000 611.3 2000 666.8C2000 722.3 2000 777.7 2000 833.2C2000 888.7 2000 944.3 2000 972.2L2000 1000Z" fill="#0c359e"></path><path d="M1208 1000L1246.7 972.2C1285.3 944.3 1362.7 888.7 1362 833.2C1361.3 777.7 1282.7 722.3 1288.2 666.8C1293.7 611.3 1383.3 555.7 1414.5 500C1445.7 444.3 1418.3 388.7 1417.5 333.2C1416.7 277.7 1442.3 222.3 1438.2 166.8C1434 111.3 1400 55.7 1383 27.8L1366 0L2000 0L2000 27.8C2000 55.7 2000 111.3 2000 166.8C2000 222.3 2000 277.7 2000 333.2C2000 388.7 2000 444.3 2000 500C2000 555.7 2000 611.3 2000 666.8C2000 722.3 2000 777.7 2000 833.2C2000 888.7 2000 944.3 2000 972.2L2000 1000Z" fill="#0250b8"></path><path d="M1463 1000L1471.7 972.2C1480.3 944.3 1497.7 888.7 1519.8 833.2C1542 777.7 1569 722.3 1567.3 666.8C1565.7 611.3 1535.3 555.7 1511.8 500C1488.3 444.3 1471.7 388.7 1468.2 333.2C1464.7 277.7 1474.3 222.3 1492 166.8C1509.7 111.3 1535.3 55.7 1548.2 27.8L1561 0L2000 0L2000 27.8C2000 55.7 2000 111.3 2000 166.8C2000 222.3 2000 277.7 2000 333.2C2000 388.7 2000 444.3 2000 500C2000 555.7 2000 611.3 2000 666.8C2000 722.3 2000 777.7 2000 833.2C2000 888.7 2000 944.3 2000 972.2L2000 1000Z" fill="#006bd1"></path><path d="M1522 1000L1548.2 972.2C1574.3 944.3 1626.7 888.7 1656.3 833.2C1686 777.7 1693 722.3 1696.5 666.8C1700 611.3 1700 555.7 1686.5 500C1673 444.3 1646 388.7 1644.5 333.2C1643 277.7 1667 222.3 1666 166.8C1665 111.3 1639 55.7 1626 27.8L1613 0L2000 0L2000 27.8C2000 55.7 2000 111.3 2000 166.8C2000 222.3 2000 277.7 2000 333.2C2000 388.7 2000 444.3 2000 500C2000 555.7 2000 611.3 2000 666.8C2000 722.3 2000 777.7 2000 833.2C2000 888.7 2000 944.3 2000 972.2L2000 1000Z" fill="#0086e9"></path><path d="M1784 1000L1795.7 972.2C1807.3 944.3 1830.7 888.7 1847 833.2C1863.3 777.7 1872.7 722.3 1852 666.8C1831.3 611.3 1780.7 555.7 1781.8 500C1783 444.3 1836 388.7 1843 333.2C1850 277.7 1811 222.3 1809.8 166.8C1808.7 111.3 1845.3 55.7 1863.7 27.8L1882 0L2000 0L2000 27.8C2000 55.7 2000 111.3 2000 166.8C2000 222.3 2000 277.7 2000 333.2C2000 388.7 2000 444.3 2000 500C2000 555.7 2000 611.3 2000 666.8C2000 722.3 2000 777.7 2000 833.2C2000 888.7 2000 944.3 2000 972.2L2000 1000Z" fill="#00a2ff"></path></svg>